<?xml version="1.0" encoding="utf-8"?>
<!-- Generator: Adobe Illustrator 21.0.0, SVG Export Plug-In . SVG Version: 6.00 Build 0)  -->
<svg version="1.1" id="Layer_1" xmlns="http://www.w3.org/2000/svg" xmlns:xlink="http://www.w3.org/1999/xlink" x="0px" y="0px"
	 viewBox="0 0 512 512" style="enable-background:new 0 0 512 512;" xml:space="preserve">
<style type="text/css">
	.st0{fill:#67768A;}
</style>
<title>icon-date</title>
<desc>Created with Sketch.</desc>
<g id="_x32_4x24">
	<g id="icon-date">
		<path id="Combined-Shape" class="st0" d="M462,80h10v382v10H50H40V80h10h76h20h100h20h100h20H462z M452,452V190H143H60v262H452z"
			/>
	</g>
</g>
<rect x="144" y="186" class="st0" width="19" height="271"/>
<rect x="355" y="186" class="st0" width="19" height="271"/>
<rect x="249" y="186" class="st0" width="19" height="271"/>
<rect x="244.5" y="166.7" transform="matrix(6.123234e-17 -1 1 6.123234e-17 -113.5 621.5)" class="st0" width="19" height="401.7"/>
<rect x="244.5" y="74.7" transform="matrix(6.123234e-17 -1 1 6.123234e-17 -21.5 529.5)" class="st0" width="19" height="401.7"/>
</svg>
